<?xml version="1.0" encoding="UTF-8"?>
<svg id="Layer_2" data-name="Layer 2" xmlns="http://www.w3.org/2000/svg" viewBox="0 0 150 150">
  <defs>
    <style>
      .cls-1 {
        fill: #fff;
      }

      .cls-2 {
        fill: #93281e;
      }
    </style>
  </defs>
  <g id="P-pea">
    <g>
      <rect class="cls-2" width="150" height="150"/>
      <path class="cls-1" d="m73.68170483,12.5h-.00412913c-21.30013866.43771132-40.00743902,11.57924039-50.969194,28.25852615h67.28179068l-16.30846756-28.25852615Z"/>
      <path class="cls-1" d="m76.31829517,137.5h.00412913c21.30013866-.43771132,40.00743902-11.57924039,50.969194-28.25852615H60.00982761l16.30846756,28.25852615Z"/>
      <path class="cls-1" d="m20.22505738,44.8919048l-.00206456.00357664c-10.27107579,18.66899576-9.97780272,40.44398872-1.01687525,58.27868316l33.64089534-58.27936069-32.62195553-.00289911Z"/>
      <path class="cls-1" d="m21.54335255,107.3919048l.00206456.00357664c11.02906287,18.23128443,30.02963631,28.86474833,49.95231874,30.02015701l-33.64089534-58.27936069-16.31348797,28.25562704Z"/>
      <path class="cls-1" d="m128.45664745,42.6080952l-.00206456-.00357664c-11.02906287-18.23128443-30.02963631-28.86474833-49.95231874-30.02015701l33.64089534,58.27936069,16.31348797-28.25562704Z"/>
    </g>
  </g>
</svg>